<svg width="20" height="20" viewBox="0 0 20 20" fill="none" xmlns="http://www.w3.org/2000/svg">
<path d="M10.1528 17.7374C9.8762 17.6746 9.76331 17.6146 9.60254 17.445C9.37534 17.2059 9.34117 17.1062 9.34308 16.688C9.34451 16.2607 9.42237 15.988 9.70071 15.4257L9.86016 15.1036H10.3991C10.8916 15.1049 10.9626 15.0893 11.222 15.0093C11.6481 14.8664 12.0839 14.5643 12.32 14.2474L12.4244 14.1074L12.7103 14.398C13.0148 14.7077 13.2904 14.8837 13.6881 15.0224C14.0062 15.1339 14.742 15.1353 15.1477 15.0224C16.0774 14.7714 16.7323 14.0377 16.9677 12.9834C16.9949 12.862 17.1336 11.7687 17.276 10.5546C17.4182 9.34044 17.539 8.3513 17.5443 8.35658C17.5773 8.38944 17.9736 9.89673 18.1048 10.4887C18.7349 13.3303 18.727 15.2647 18.0807 16.3943C17.8162 16.8564 17.2995 17.2256 16.7574 17.3393C16.4067 17.4136 16.213 17.405 15.9094 17.3064C15.119 17.0484 14.1972 17.0913 12.5171 17.464C11.2053 17.7552 10.5682 17.8274 10.1528 17.7326L10.1528 17.7374ZM6.21406 14.686C5.92826 14.6203 5.60893 14.4899 5.38676 14.3473L5.20756 14.2316V10.8872V7.54273L4.8487 7.51844C4.65134 7.50415 4.4851 7.49844 4.4793 7.50415C4.47358 7.50415 4.45701 9.01115 4.44258 10.8397L4.41644 14.1646L4.28301 14.2174C3.89361 14.3733 2.98546 14.3872 2.61291 14.2432C2.04008 14.0216 1.64196 13.5042 1.47624 12.766C1.43824 12.5966 1.42853 11.9369 1.42853 9.53701L1.4286 6.52101L1.5086 6.23715C1.68858 5.59815 2.08973 4.96358 2.51883 4.63872C2.99173 4.28087 3.4108 4.1613 4.19157 4.1613H4.65973L4.87151 3.9453C4.98794 3.82672 5.17224 3.66001 5.28096 3.57544C6.0719 2.96044 7.126 2.79844 8.16391 3.13215L8.48054 3.23358L8.57254 3.12072C8.87093 2.7543 9.27107 2.47972 9.73167 2.3253C9.98807 2.23958 10.067 2.22958 10.5478 2.22815C11.1467 2.22815 11.3644 2.26958 11.7965 2.4733C12.1133 2.62287 12.393 2.81215 12.703 3.08701L12.942 3.29887L13.2175 3.24744C13.5847 3.17744 14.598 3.16887 14.859 3.23315C15.1397 3.30172 15.7253 3.5933 15.9985 3.80072C16.2424 3.98601 16.5118 4.31101 16.6496 4.58658C16.8501 4.98715 16.988 5.62644 16.988 6.1543C16.988 6.33101 16.8232 7.86987 16.614 9.64672C16.2122 13.0592 16.2117 13.0617 15.9522 13.5209C15.7224 13.9274 15.3248 14.2166 14.864 14.3123C14.7569 14.3352 14.5084 14.3466 14.3117 14.338C13.9941 14.3237 13.9279 14.3109 13.7188 14.2066C13.4139 14.0552 13.1141 13.756 12.9673 13.4567L12.8542 13.226V9.78415V6.3423L12.9656 6.10687L13.077 5.87158L12.8184 5.61472C12.6761 5.4733 12.543 5.36801 12.5227 5.38072C12.4482 5.42644 12.238 5.81644 12.1572 6.05844L12.0742 6.30672L12.0561 9.73087C12.04 12.7574 12.0312 13.1722 11.9811 13.3027C11.8239 13.7109 11.5297 14.0294 11.141 14.2123C10.9295 14.3123 10.8595 14.3266 10.5224 14.338C9.90453 14.3594 9.40601 14.238 9.14138 13.9982L9.0041 13.8739V10.312V6.75001H8.63168H8.25927L8.2507 10.5379L8.24213 14.3257L7.976 14.4586C7.82963 14.5314 7.61407 14.6163 7.49697 14.6472C7.19727 14.7257 6.48878 14.7457 6.2148 14.6829L6.21406 14.686Z" fill="black"/>
</svg>
